<?xml version="1.0" encoding="utf-8"?>
<!-- Generator: Adobe Illustrator 23.1.0, SVG Export Plug-In . SVG Version: 6.00 Build 0)  -->
<svg version="1.1" xmlns="http://www.w3.org/2000/svg" xmlns:xlink="http://www.w3.org/1999/xlink" x="0px" y="0px"
	 viewBox="0 0 72.5 66.1" style="enable-background:new 0 0 72.5 66.1;" xml:space="preserve">
<style type="text/css">
	.st0{display:none;}
	.st1{display:inline;fill:#FF6400;}
	.st2{fill:#FFFFFF;}
</style>
<g id="Ebene_2" class="st0">
	<rect class="st1" width="279.8" height="66.1"/>
</g>
<g id="Ebene_1">
	<g>
		<path class="st2" d="M66,23c-1.5,0.1-3.5,1.2-4.5,2.5c0,0-0.2,0.3-2,0.3c-0.8,0-0.8,0-0.8,0c-0.8-0.4-2.5,0.1-3.8,1.1l-2,1.4
			c-1.4,0.9-2.5,3.1-2.5,4.7v26.8c0,1.6,0,3,0,3c0,0,1.4,0,3,0h12.1c1.7,0,3-1.4,3-3v-34C68.7,24.2,67.5,22.9,66,23z"/>
		<path class="st2" d="M68.7,4.1c0,0-1.4,0-3,0H53.5c-1.7,0-3,1.3-3,3v16.1c0,1.6,1.1,2.2,2.5,1.3l0.3-0.2c1.4-0.9,2.4-2,2.3-2.3
			c0,0,0,0,0-0.3c0-2.2,1.8-4,4-4c1.6,0,1.7,0.1,1.7,0.1c1.1,1.2,3.2,2.2,4.7,2.1s2.7-1.5,2.7-3.1V7.1C68.7,5.5,68.7,4.1,68.7,4.1z"
			/>
	</g>
	<g>
		<g>
			<path class="st2" d="M6,51.8c1.4-0.5,2.5-0.9,2.5-1c0,0,0,0,0,0c0-2.2,1.8-4,4-4c1,0,1,0,1,0c0.9,0.6,2.8,0.4,4.3-0.4l1.1-0.6
				c1.5-0.8,2.6-2.8,2.6-4.4v-5.6c0-1.6,0-3,0-3c0,0-1.4,0-3,0H6.4c-1.7,0-3,1.4-3,3v13.9C3.4,51.4,4.6,52.3,6,51.8z"/>
		</g>
		<g>
			<path class="st2" d="M19,49.1c-1.4,0.8-2.5,1.5-2.5,1.6c0,0,0,0,0,0.1c0,2.2-1.8,4-4,4c-1.1,0-1.1,0-1.1,0c-1-0.7-3-0.7-4.5-0.2
				l-0.6,0.2c-1.5,0.6-2.8,2.4-2.8,4v0.9c0,1.7,0,3,0,3c0,0,1.4,0,3,0h12.1c1.6,0,3-1.3,3-3v-9C21.5,49.1,20.4,48.4,19,49.1z"/>
		</g>
	</g>
	<g>
		<g>
			<path class="st2" d="M42.4,35.7C41,36.6,40,37.7,40,38c0,0,0,0,0,0.3c0,2.2-1.8,4-4,4c-1,0-1,0-1,0c-0.9-0.5-2.8-0.3-4.2,0.5
				l-1.2,0.7c-1.5,0.8-2.6,2.8-2.6,4.4v11.9c0,1.7,0,3,0,3c0,0,1.4,0,3,0h12.1c1.7,0,3-1.3,3-3v-23c0-1.6-1.1-2.2-2.5-1.3L42.4,35.7
				z"/>
		</g>
		<g>
			<path class="st2" d="M29.5,40.1c1.4-0.8,2.5-1.5,2.5-1.6c0,0,0,0,0-0.1c0-2.2,1.8-4,4-4c0.8,0,0.8,0,0.8,0
				c0.8,0.4,2.5-0.1,3.8-1.1l2-1.4c1.4-0.9,2.5-3.1,2.5-4.7v-6.3c0-1.6,0-3,0-3c0,0-1.4,0-3,0H30c-1.6,0-3,1.4-3,3v17.7
				C27,40.1,28.1,40.8,29.5,40.1z"/>
		</g>
	</g>
</g>
</svg>
